:version 1.10
:name ASF
:units
  mass 1
  length 1
  angle deg
:documentation
  ASF file generated by Kaydara
:root
  axis xyz
  order  tx ty tz rx ry rz
  position 0 0 0
  orientation 0 0 0
:bonedata
  begin
    id 1
    name RightUpLegDummy
    direction -1 2.30186e-007 8.31532e-007
    length 4.04083
    axis 0 0 0 xyz
  end
  begin
    id 2
    name RightUpLeg
    direction -0.000919234 -0.999985 0.00544864
    length 17.4221
    axis -3.80308 -0.00076134 -0.0523649 xyz
    dof rx ry rz
  end
  begin
    id 3
    name RightLeg
    direction -0.000919271 -0.999984 -0.00555045
    length 17.1239
    axis 4.00314 0.0181274 -0.183583 xyz
    dof rx ry rz
  end
  begin
    id 4
    name RightFoot
    direction -2.57843e-005 -4.04509e-007 1
    length 6.72091
    axis 8.18909e-005 -0.122003 -0.403008 xyz
    dof rx ry rz
  end
  begin
    id 5
    name RightToes
    direction 0.00116825 -0.014069 0.9999
    length 3.85082
    axis 0.000514414 0.540638 -0.356797 xyz
    dof rx ry rz
  end
  begin
    id 6
    name SpineDummy
    direction 0.0168869 0.966876 -0.254689
    length 6.99894
    axis 0 0 0 xyz
  end
  begin
    id 7
    name Spine
    direction -0.0132008 0.999903 0.00446247
    length 11.1999
    axis -0.00148109 0.00725429 0.756411 xyz
    dof rx ry rz
  end
  begin
    id 8
    name Spine1
    direction 0 0 0
    length 0
    axis -0.000934958 0.0245693 1.46543 xyz
    dof rx ry rz
  end
  begin
    id 9
    name HEadDummy
    direction -0.0255732 0.999672 0.00128215
    length 3.43865
    axis -0.000934958 0.0245693 1.46543 xyz
  end
  begin
    id 10
    name HEad
    direction -0.0472656 0.980052 0.19304
    length 5.12695
    axis -0.000934954 0.0245693 1.46543 xyz
    dof rx ry rz
  end
  begin
    id 11
    name LeftShoulder1Dummy
    direction 0.953098 0.301717 -0.023914
    length 3.68488
    axis -0.000934958 0.0245693 1.46543 xyz
  end
  begin
    id 12
    name LeftShoulder1
    direction 0.962466 0.271167 0.0112566
    length 3.13809
    axis -0.000934958 0.0245693 1.46543 xyz
    dof rx ry rz
  end
  begin
    id 13
    name LeftArm
    direction 0.999943 0.00455037 -0.00961766
    length 11.3419
    axis -23.1648 0.685459 1.22814 xyz
    dof rx ry rz
  end
  begin
    id 14
    name LeftForeArm
    direction 0.999332 0.0131969 0.0340885
    length 8.70632
    axis -9.90633 0.618216 0.0826942 xyz
    dof rx ry rz
  end
  begin
    id 15
    name LeftHand
    direction 0.994373 -0.0366703 0.0993905
    length 5.32135
    axis 0.00675269 0.680415 0.445699 xyz
    dof rx ry rz
  end
  begin
    id 16
    name RightShoulderDummy
    direction -0.967298 0.252589 -0.0230903
    length 3.68488
    axis -0.000934958 0.0245693 1.46543 xyz
  end
  begin
    id 17
    name RightShoulder
    direction -0.975062 0.221602 0.0120823
    length 3.13809
    axis 0.216257 0.0246515 1.45863 xyz
    dof rx ry rz
  end
  begin
    id 18
    name RightArm
    direction -0.99886 -0.00851186 -0.0469687
    length 10.3947
    axis -23.196 0.23503 -0.532632 xyz
    dof rx ry rz
  end
  begin
    id 19
    name RightForeArm
    direction -0.99909 0.00114866 0.0426317
    length 8.68355
    axis -9.91764 -0.134943 0.610517 xyz
    dof rx ry rz
  end
  begin
    id 20
    name RightHand
    direction -0.992888 -0.0489538 0.10852
    length 5.28593
    axis -0.00275396 -0.197403 0.246414 xyz
    dof rx ry rz
  end
  begin
    id 21
    name LeftUpLegDummy
    direction 1 -2.30186e-007 -8.31532e-007
    length 4.04083
    axis 0 0 0 xyz
  end
  begin
    id 22
    name LeftUpLeg
    direction -0.000920097 -1 2.79241e-006
    length 17.4221
    axis -3.48782 0.00143434 -0.0532288 xyz
    dof rx ry rz
  end
  begin
    id 23
    name LeftLeg
    direction -0.000920097 -1 2.7912e-006
    length 17.1239
    axis 3.68162 -0.00806512 -0.0529896 xyz
    dof rx ry rz
  end
  begin
    id 24
    name LeftFoot
    direction -2.57845e-005 -3.987e-007 1
    length 6.72091
    axis 3.02372e-005 -0.00147829 -0.214229 xyz
    dof rx ry rz
  end
  begin
    id 25
    name LeftToes
    direction 0.00813577 -0.00488255 0.999955
    length 3.85048
    axis 3.89895e-005 -0.0014783 -0.214229 xyz
    dof rx ry rz
  end
:hierarchy
  begin
    root RightUpLegDummy SpineDummy LeftUpLegDummy
    RightUpLegDummy RightUpLeg
    RightUpLeg RightLeg
    RightLeg RightFoot
    RightFoot RightToes
    SpineDummy Spine
    Spine Spine1
    Spine1 HEadDummy LeftShoulder1Dummy RightShoulderDummy
    HEadDummy HEad
    LeftShoulder1Dummy LeftShoulder1
    LeftShoulder1 LeftArm
    LeftArm LeftForeArm
    LeftForeArm LeftHand
    RightShoulderDummy RightShoulder
    RightShoulder RightArm
    RightArm RightForeArm
    RightForeArm RightHand
    LeftUpLegDummy LeftUpLeg
    LeftUpLeg LeftLeg
    LeftLeg LeftFoot
    LeftFoot LeftToes
  end

:SAMPLES-PER-SECOND 30
:FULLY-SPECIFIED
:DEGREES
1
root  -17.1221 34.6803 34.3995 -169.866 9.36189 -178.77
RightUpLeg  -9.66889 -11.7658 2.55579
RightLeg  5.73946 -1.79946 -0.0634058
RightFoot  4.42834 0.0214342 -0.0165382
RightToes  -21.973 -0.098703 -0.199877
Spine  -2.13757 -1.05892 0.444863
Spine1  -4.3424 -2.06024 1.49644
HEad  -95.0002 -57.5189 27.9253
LeftShoulder1  -1.94126e-019 -3.10601e-018 -2.51263e-017
LeftArm  -10.0895 24.0831 -80.7162
LeftForeArm  29.4235 -20.5488 -3.46408
LeftHand  -0.425841 -1.41842 7.45505
RightShoulder  -4.96962e-017 0 -2.36833e-017
RightArm  -31.3759 -22.6908 75.5898
RightForeArm  61.5082 11.8678 1.47484
RightHand  -0.439336 -0.987539 -11.5332
LeftUpLeg  -6.12011 8.69179 1.54899
LeftLeg  4.80439 15.3763 0.297041
LeftFoot  3.50574 -0.030521 1.08332
LeftToes  -16.287 1.31378e-006 1.14341e-007
2
root  -17.1294 34.6803 34.3968 -169.845 9.26445 -178.769
RightUpLeg  -9.7219 -11.803 2.54793
RightLeg  5.8422 -1.8239 -0.0675476
RightFoot  4.38147 0.0215495 -0.018187
RightToes  -21.9131 -0.098703 -0.199877
Spine  -2.16057 -1.09648 0.444862
Spine1  -4.38882 -2.13906 1.49459
HEad  -94.9554 -57.6445 27.8909
LeftShoulder1  -1.94126e-019 -3.10601e-018 -2.51263e-017
LeftArm  -10.1738 24.2411 -80.8164
LeftForeArm  29.4674 -20.3579 -3.42979
LeftHand  -0.427237 -1.45952 7.40488
RightShoulder  -4.96962e-017 0 -2.36833e-017
RightArm  -31.0161 -23.1017 75.5174
RightForeArm  60.9692 12.2256 1.4433
RightHand  -0.422135 -1.0995 -11.3562
LeftUpLeg  -6.19179 8.5302 1.53892
LeftLeg  4.89131 15.4389 0.321359
LeftFoot  3.47308 -0.030121 1.0771
LeftToes  -16.3511 1.31378e-006 1.14341e-007
3
root  -17.1313 34.6803 34.3839 -169.828 9.25557 -178.756
RightUpLeg  -9.7398 -11.4174 2.52787
RightLeg  5.90831 -2.49626 -0.0956755
RightFoot  4.69393 0.0259297 -0.0807821
RightToes  -23.3012 -0.098703 -0.199877
Spine  -2.18293 -1.09702 0.440756
Spine1  -4.43326 -2.14272 1.48677
HEad  -94.783 -57.7384 27.7527
LeftShoulder1  -1.94126e-019 -3.10601e-018 -2.51263e-017
LeftArm  -10.21 24.398 -80.9959
LeftForeArm  29.2757 -20.303 -3.41805
LeftHand  -0.417163 -0.996788 7.71935
RightShoulder  -4.96962e-017 0 -2.36833e-017
RightArm  -31.1394 -23.2207 75.4668
RightForeArm  60.954 12.2529 1.44041
RightHand  -0.429845 -1.02563 -11.377
LeftUpLeg  -6.20017 8.4906 1.53645
LeftLeg  4.91757 15.4715 0.329026
LeftFoot  3.4376 -0.0295914 1.06887
LeftToes  -16.2457 1.31378e-006 1.14341e-007
4
root  -17.1252 34.6797 34.3508 -169.772 9.24434 -178.757
RightUpLeg  -9.64103 -11.4234 2.5289
RightLeg  5.70907 -2.48931 -0.0867545
RightFoot  4.73819 0.0260324 -0.082249
RightToes  -22.9828 -0.098703 -0.199877
Spine  -2.24295 -1.07749 0.428968
Spine1  -4.55255 -2.10614 1.46701
HEad  -94.2361 -57.7859 27.2638
LeftShoulder1  -1.94126e-019 -3.10601e-018 -2.51263e-017
LeftArm  -10.4049 24.6427 -81.1122
LeftForeArm  29.9211 -19.6283 -3.30821
LeftHand  -0.484469 -2.07352 7.73122
RightShoulder  -4.96962e-017 0 -2.36833e-017
RightArm  -31.1743 -23.4427 75.4306
RightForeArm  60.7046 12.442 1.42109
RightHand  -0.435102 -1.00663 -11.2983
LeftUpLeg  -6.19881 8.4978 1.53463
LeftLeg  4.89749 15.4622 0.323479
LeftFoot  3.43272 -0.0294683 1.06696
LeftToes  -16.2236 1.31378e-006 1.14341e-007
5
root  -17.1144 34.6788 34.3261 -169.725 9.25879 -178.739
RightUpLeg  -9.57396 -11.448 2.56114
RightLeg  5.56009 -2.46248 -0.079413
RightFoot  4.79777 0.026055 -0.0825724
RightToes  -22.9801 -0.098747 -0.199877
Spine  -2.29515 -1.04972 0.425516
Spine1  -4.65708 -2.04968 1.45993
HEad  -93.589 -57.618 26.6865
LeftShoulder1  -1.94126e-019 -3.10601e-018 -2.51263e-017
LeftArm  -10.5904 24.9061 -81.2918
LeftForeArm  29.977 -19.4344 -3.26788
LeftHand  -0.477118 -2.00026 7.68695
RightShoulder  -4.96962e-017 0 -2.36833e-017
RightArm  -31.0991 -23.5548 75.4253
RightForeArm  60.4358 12.6237 1.40126
RightHand  -0.433378 -0.951427 -11.2869
LeftUpLeg  -6.19699 8.46422 1.56062
LeftLeg  4.90704 15.5138 0.327091
LeftFoot  3.41833 -0.0294358 1.06645
LeftToes  -16.2265 1.31378e-006 1.14341e-007
6
root  -17.1007 34.6756 34.2987 -169.691 9.20227 -178.733
RightUpLeg  -9.4022 -11.8899 2.59937
RightLeg  5.24555 -2.07189 -0.0553169
RightFoot  4.85054 0.0239996 -0.0531986
RightToes  -22.683 -0.0987675 -0.199877
Spine  -2.36066 -1.03055 0.421373
Spine1  -4.78894 -2.00863 1.45193
HEad  -92.3699 -57.1469 25.6575
LeftShoulder1  -1.94126e-019 -3.10601e-018 -2.51263e-017
LeftArm  -10.8716 25.148 -81.4918
LeftForeArm  29.9695 -19.0412 -3.20186
LeftHand  -0.379028 -1.05078 6.96991
RightShoulder  -4.96962e-017 0 -2.36833e-017
RightArm  -30.9518 -23.6527 75.4536
RightForeArm  60.0241 12.8463 1.3762
RightHand  -0.42661 -0.971929 -11.159
LeftUpLeg  -6.20236 8.38031 1.58567
LeftLeg  4.92716 15.5618 0.333476
LeftFoot  3.39386 -0.0292273 1.06321
LeftToes  -16.2289 1.31378e-006 1.14341e-007
7
root  -17.0804 34.6681 34.2729 -169.704 9.0667 -178.634
RightUpLeg  -9.20989 -12.008 2.71947
RightLeg  5.02903 -2.07751 -0.0476358
RightFoot  4.92038 0.0241789 -0.0557616
RightToes  -22.5904 -0.0987656 -0.199877
Spine  -2.40843 -1.03175 0.459656
Spine1  -4.88656 -2.00424 1.52728
HEad  -89.8557 -56.0314 23.4512
LeftShoulder1  -1.94126e-019 -3.10601e-018 -2.51263e-017
LeftArm  -11.251 25.4019 -81.7311
LeftForeArm  30.2134 -18.772 -3.15193
LeftHand  -0.379373 -1.09721 6.93006
RightShoulder  -4.96962e-017 0 -2.36833e-017
RightArm  -30.7599 -23.6655 75.4625
RightForeArm  59.6127 13.0713 1.34947
RightHand  -0.429361 -0.930611 -11.1315
LeftUpLeg  -6.17542 9.02256 1.71217
LeftLeg  4.95163 14.8685 0.325209
LeftFoot  3.32111 -0.0251692 1.00013
LeftToes  -16.3245 1.31378e-006 1.14341e-007
8
root  -17.0705 34.6675 34.2565 -169.735 8.96043 -178.636
RightUpLeg  -9.1032 -12.1167 2.72824
RightLeg  4.95108 -2.07423 -0.0447443
RightFoot  4.94072 0.0244128 -0.0591035
RightToes  -22.6589 -0.0987424 -0.199877
Spine  -2.43392 -1.02289 0.494435
Spine1  -4.93995 -1.97839 1.59533
HEad  -86.7343 -53.5608 20.6647
LeftShoulder1  -1.94126e-019 -3.10601e-018 -2.51263e-017
LeftArm  -11.5553 25.5317 -81.9996
LeftForeArm  30.3721 -18.3825 -3.08025
LeftHand  -0.380612 -1.13239 6.83943
RightShoulder  -4.96962e-017 0 -2.36833e-017
RightArm  -30.5723 -23.5777 75.4802
RightForeArm  59.179 13.3339 1.31687
RightHand  -0.428817 -0.923764 -11.1012
LeftUpLeg  -6.14243 9.0292 1.73903
LeftLeg  4.97663 14.7569 0.329186
LeftFoot  3.29997 -0.0244255 0.988573
LeftToes  -16.1969 1.31378e-006 1.14341e-007
9
root  -17.0632 34.6673 34.2495 -169.74 8.84576 -178.641
RightUpLeg  -9.05809 -12.2006 2.73831
RightLeg  4.91798 -2.09941 -0.0440886
RightFoot  4.9186 0.0246753 -0.0628547
RightToes  -22.6123 -0.098699 -0.199877
Spine  -2.44879 -1.00066 0.53714
Spine1  -4.97162 -1.92465 1.67744
HEad  -83.3947 -49.3404 17.773
LeftShoulder1  -1.94126e-019 -3.10601e-018 -2.51263e-017
LeftArm  -11.6325 25.6097 -82.2211
LeftForeArm  30.4029 -18.129 -3.03618
LeftHand  -0.380696 -1.1414 6.7907
RightShoulder  -4.96962e-017 0 -2.36833e-017
RightArm  -30.3991 -23.4569 75.5295
RightForeArm  58.6747 13.6234 1.2803
RightHand  -0.427834 -0.928475 -11.0466
LeftUpLeg  -6.15192 8.98046 1.75781
LeftLeg  4.99119 14.6961 0.33155
LeftFoot  3.31798 -0.0245518 0.990536
LeftToes  -16.2829 1.31378e-006 1.14341e-007
10
root  -17.0598 34.669 34.2558 -169.791 8.69554 -178.665
RightUpLeg  -9.01571 -12.233 2.72142
RightLeg  4.93872 -2.21738 -0.0474158
RightFoot  4.89458 0.0249151 -0.0662819
RightToes  -22.647 -0.0986367 -0.199877
Spine  -2.42502 -0.967636 0.59535
Spine1  -4.92544 -1.84929 1.79523
HEad  -80.4369 -43.7085 15.1294
LeftShoulder1  -1.94126e-019 -3.10601e-018 -2.51263e-017
LeftArm  -11.7346 25.5376 -82.4829
LeftForeArm  30.6345 -17.8623 -2.98781
LeftHand  -0.380285 -1.1841 6.77687
RightShoulder  -4.96962e-017 0 -2.36833e-017
RightArm  -29.9043 -23.3582 75.5604
RightForeArm  57.9663 14.0394 1.22766
RightHand  -0.426067 -0.936135 -11.0587
LeftUpLeg  -6.10283 8.77101 1.76063
LeftLeg  4.92427 14.7484 0.315671
LeftFoot  3.36006 -0.0255733 1.00641
LeftToes  -16.2678 1.31378e-006 1.14341e-007
11
root  -17.0594 34.6717 34.269 -169.847 8.53041 -178.707
RightUpLeg  -8.98391 -12.2882 2.6901
RightLeg  4.95968 -2.33826 -0.0509014
RightFoot  4.88058 0.0250809 -0.0686514
RightToes  -22.676 -0.0985566 -0.199877
Spine  -2.39399 -0.887753 0.632952
Spine1  -4.86353 -1.6834 1.87071
HEad  -77.93 -37.1413 13.0167
LeftShoulder1  -1.94126e-019 -3.10601e-018 -2.51263e-017
LeftArm  -11.8067 25.3379 -82.6675
LeftForeArm  31.1091 -17.6789 -2.95482
LeftHand  -0.381587 -1.23867 6.68105
RightShoulder  -4.96962e-017 0 -2.36833e-017
RightArm  -29.3681 -23.3436 75.6293
RightForeArm  57.2704 14.4285 1.18108
RightHand  -0.430224 -0.870387 -11.0115
LeftUpLeg  -6.06746 8.54683 1.74621
LeftLeg  4.86052 14.7939 0.30035
LeftFoot  3.41889 -0.0268317 1.02597
LeftToes  -16.2855 1.31378e-006 1.14341e-007
12
root  -17.0628 34.6744 34.2829 -169.897 8.32216 -178.755
RightUpLeg  -8.92187 -12.4814 2.6563
RightLeg  4.91246 -2.35534 -0.0493428
RightFoot  4.85563 0.0250861 -0.0687258
RightToes  -22.5492 -0.0984599 -0.199877
Spine  -2.36141 -0.782006 0.646384
Spine1  -4.79742 -1.46928 1.89818
HEad  -76.1618 -30.3825 11.7107
LeftShoulder1  -1.94126e-019 -3.10601e-018 -2.51263e-017
LeftArm  -11.865 25.0723 -82.7696
LeftForeArm  31.5111 -17.6633 -2.95006
LeftHand  -0.380689 -1.31224 6.71441
RightShoulder  -4.96962e-017 0 -2.36833e-017
RightArm  -28.7656 -23.386 75.7276
RightForeArm  56.8366 14.7061 1.14981
RightHand  -0.421915 -0.897574 -10.8602
LeftUpLeg  -6.0419 8.2619 1.72039
LeftLeg  4.78943 14.8638 0.283507
LeftFoot  3.47499 -0.0281358 1.04624
LeftToes  -16.2759 1.31378e-006 1.14341e-007
